<svg width="151" height="36" viewBox="0 0 151 36" fill="none" xmlns="http://www.w3.org/2000/svg">
<path d="M34.8115 17.9057C34.8115 8.56896 27.2425 1 17.9057 1C8.56896 1 1 8.56896 1 17.9057C1 27.2425 8.56896 34.8115 17.9057 34.8115C27.2425 34.8115 34.8115 27.2425 34.8115 17.9057Z" fill="black" stroke="#CA772A" stroke-width="2"/>
<path d="M24.4222 16.7209C24.7068 17.3159 24.8869 17.9387 24.886 18.6032C24.886 19.5042 24.535 20.2358 23.8302 20.7073C22.5484 21.5662 21.2536 22.4031 19.9457 23.2182C19.3085 23.6175 18.637 23.5921 18.0123 23.1683C17.3877 22.7444 17.0819 22.1 17.1175 21.3016C17.1511 20.5492 17.5003 19.979 18.0973 19.5995C20.733 17.924 23.3697 16.2512 26.0077 14.5808C26.4218 14.3188 26.7276 13.9683 26.8333 13.4489C26.9732 12.7613 26.681 12.0892 26.0786 11.7072C25.5882 11.3966 25.0934 11.0947 24.6001 10.7898C24.0596 10.4552 23.5216 10.1126 22.9745 9.79005C22.4315 9.47019 21.8945 9.50063 21.3845 9.88798C21.2625 9.98069 21.1433 9.98554 21.0173 9.91362C20.9331 9.86542 20.8504 9.8128 20.77 9.75741C20.5635 9.6181 20.5422 9.38794 20.7261 9.21439C21.1999 8.76735 21.7537 8.56798 22.3795 8.60167C22.7322 8.61876 23.0763 8.72585 23.3838 8.91427C24.4385 9.55927 25.4949 10.2022 26.542 10.8623C27.3456 11.369 27.7702 12.1407 27.7608 13.154C27.7517 14.1289 27.3218 14.8626 26.5604 15.3608C25.8893 15.7998 25.2071 16.2187 24.53 16.6468C24.4914 16.6717 24.4543 16.699 24.4222 16.7209Z" fill="#FFCA64"/>
<path d="M14.3205 22.5403C13.9643 22.5057 13.6507 22.5016 13.3469 22.4407C12.2838 22.2301 11.5242 21.2934 11.4821 20.152C11.4611 19.5815 11.4559 19.0102 11.4512 18.4391C11.4433 17.4745 11.4386 16.5099 11.4373 15.5454C11.4351 14.3964 12.2709 13.6606 13.0784 13.5773C14.1192 13.47 14.9716 14.1573 15.1432 15.2134C15.167 15.3686 15.1784 15.5256 15.1771 15.6827C15.1771 17.3028 15.1727 18.9232 15.1738 20.5435C15.1745 21.4241 15.1801 22.3048 15.1905 23.1856C15.1991 23.9085 15.2004 24.6321 15.2364 25.3536C15.2948 26.5233 16.4134 27.1725 17.3846 26.6053C17.9483 26.2766 18.4982 25.9209 19.0534 25.5758C19.5146 25.2889 19.975 25.0005 20.4346 24.7106C20.8692 24.4347 21.1299 24.0339 21.1849 23.4963C21.1954 23.4082 21.1943 23.319 21.1815 23.2312C21.1544 23.0632 21.2119 22.9459 21.3462 22.8627C21.4275 22.8125 21.5071 22.7591 21.5902 22.7125C21.7915 22.5992 21.9805 22.6932 22.0314 22.9275C22.2349 23.8671 21.8301 24.9063 21.0225 25.423C19.9245 26.1255 18.8265 26.8292 17.7038 27.4844C16.5476 28.1591 14.9562 27.5617 14.4663 26.1086C14.3163 25.664 14.3223 25.2032 14.3199 24.7429C14.3182 24.0046 14.3205 23.2662 14.3205 22.5403Z" fill="#CA772A"/>
<path d="M9.5026 12.8815C9.5026 13.5668 9.51711 14.2147 9.53893 14.8994C9.55775 15.4701 9.85387 15.8832 10.3459 16.1504C10.6021 16.2895 10.7156 16.7493 10.5475 16.9916C10.4581 17.1206 10.3291 17.1363 10.1919 17.0938C9.35371 16.833 8.64146 15.8949 8.62805 15C8.60734 13.6507 8.59553 12.2991 8.5983 10.9494C8.60094 9.77868 9.58486 8.72708 10.7306 8.62245C11.241 8.57093 11.7544 8.68331 12.1989 8.94396C12.882 9.33728 13.5656 9.72943 14.2442 10.1304C14.3571 10.1974 14.4136 10.1818 14.4949 10.0848C14.7462 9.78476 14.9855 9.46829 15.2712 9.20548C15.9925 8.54179 17.0594 8.40464 17.9083 8.87978C19.2305 9.61872 20.5472 10.3687 21.8475 11.1464C22.9112 11.7824 23.1038 13.2032 22.2899 14.145C21.7168 14.8079 20.7013 14.9818 19.9258 14.5306C18.1912 13.5212 16.4624 12.5012 14.7306 11.4881C13.7316 10.904 12.7329 10.3195 11.7284 9.74474C10.8039 9.21618 9.66711 9.78575 9.52068 10.8499C9.48902 11.0799 9.50432 11.3167 9.50316 11.5504C9.5007 11.9816 9.5015 12.4125 9.50316 12.844C9.50279 12.8564 9.5026 12.8719 9.5026 12.8815Z" fill="#EEF0F1"/>
</svg>
